<svg width="206" height="213" viewBox="0 0 206 213" fill="none" xmlns="http://www.w3.org/2000/svg">
<g clip-path="url(#clip0_5_9)">
<g filter="url(#filter0_d_5_9)">
<path d="M3 210H203" stroke="black" stroke-width="5" stroke-linecap="round"/>
</g>
<line x1="39.5" y1="212" x2="39.5" y2="6.55671e-08" stroke="black" stroke-width="3"/>
<line x1="40" y1="1.5" x2="150" y2="1.5" stroke="black" stroke-width="3"/>
<line x1="150.5" y1="6.6828e-08" x2="150.5" y2="25" stroke="black" stroke-width="3"/>
<circle cx="150.5" cy="44.5" r="18" stroke="black" stroke-width="3"/>
<circle cx="144" cy="39" r="2" fill="black"/>
<circle cx="157" cy="39" r="2" fill="black"/>
<line x1="146.5" y1="52.5" x2="155.5" y2="52.5" stroke="black" stroke-linecap="round"/>
<path d="M161 71L161 61L141 61L141 71L161 71ZM141 106C141 111.523 145.477 116 151 116C156.523 116 161 111.523 161 106L141 106ZM141 71L141 106L161 106L161 71L141 71Z" fill="black"/>
</g>
<defs>
<filter id="filter0_d_5_9" x="-3.5" y="207.5" width="213" height="13" filterUnits="userSpaceOnUse" color-interpolation-filters="sRGB">
<feFlood flood-opacity="0" result="BackgroundImageFix"/>
<feColorMatrix in="SourceAlpha" type="matrix" values="0 0 0 0 0 0 0 0 0 0 0 0 0 0 0 0 0 0 127 0" result="hardAlpha"/>
<feOffset dy="4"/>
<feGaussianBlur stdDeviation="2"/>
<feComposite in2="hardAlpha" operator="out"/>
<feColorMatrix type="matrix" values="0 0 0 0 0 0 0 0 0 0 0 0 0 0 0 0 0 0 0.25 0"/>
<feBlend mode="normal" in2="BackgroundImageFix" result="effect1_dropShadow_5_9"/>
<feBlend mode="normal" in="SourceGraphic" in2="effect1_dropShadow_5_9" result="shape"/>
</filter>
<clipPath id="clip0_5_9">
<rect width="206" height="213" fill="white"/>
</clipPath>
</defs>
</svg>
